<svg width="137" height="50" viewBox="0 0 137 50" fill="none" xmlns="http://www.w3.org/2000/svg">
<g clip-path="url(#clip0_1468_3054)">
<path fill-rule="evenodd" clip-rule="evenodd" d="M23.0477 31.9822C24.1973 31.3199 25.0277 31.3354 26.5702 30.2974C34.964 24.6475 33.9008 11.9886 25.1166 7.1814C21.9227 5.49548 18.1987 5.1083 14.725 6.101C11.2513 7.0937 8.29752 9.38922 6.48271 12.5065H0.379321C2.51097 4.64992 10.8729 3.7346e-05 18.6781 3.7346e-05C21.2398 -0.0049791 23.7773 0.495422 26.1445 1.47245C28.5117 2.44948 30.6619 3.88385 32.4714 5.69303C34.2808 7.50221 35.7138 9.65049 36.688 12.0143C37.6621 14.3781 38.1581 16.9107 38.1474 19.4664C38.0955 22.4965 37.3215 25.4706 35.8894 28.1432C34.4572 30.8157 32.4081 33.1099 29.9114 34.836C29.7165 34.971 29.519 35.1024 29.3188 35.2302L37.8909 50H29.1044L21.6571 37.1643C21.1547 36.2926 21.0189 35.2579 21.2796 34.2867C21.5402 33.3154 22.176 32.4868 23.0477 31.9822ZM8.10071 43.2122C8.10061 43.3616 8.06919 43.5093 8.00848 43.6458C7.91265 43.8649 7.75138 44.0493 7.54668 44.1736C7.34198 44.2979 7.10381 44.3562 6.86467 44.3406C6.62553 44.3249 6.39705 44.236 6.21042 44.086C6.02379 43.936 5.88808 43.7322 5.82182 43.5024C5.79517 43.408 5.7816 43.3104 5.78148 43.2122C5.7898 39.3627 5.77668 35.9673 5.76166 32.4631H0.123047C0.14205 36.1963 0.149402 39.7573 0.149402 43.2122C0.158049 44.9316 0.821397 46.5835 2.00509 47.8332C3.18878 49.083 4.80434 49.8372 6.52453 49.9431C8.24473 50.049 9.94098 49.4987 11.2697 48.4037C12.5985 47.3086 13.4604 45.7506 13.6809 44.0454L13.6188 32.4971L8.13987 32.4175C8.14214 36.4467 8.10071 39.2737 8.10071 43.2122Z" fill="#EA0E15"/>
<path fill-rule="evenodd" clip-rule="evenodd" d="M13.1154 19.4829C13.0939 18.7697 13.2156 18.0594 13.4733 17.3938C13.731 16.7281 14.1194 16.1206 14.6159 15.6069C15.1123 15.0932 15.7066 14.6837 16.364 14.4025C17.0213 14.1213 17.7283 13.974 18.4436 13.9693C18.4754 13.9688 18.5072 13.9686 18.5391 13.9686C19.9871 13.9686 21.3759 14.5425 22.3998 15.564C23.4237 16.5855 23.9989 17.9709 23.9989 19.4156C23.9989 20.8602 23.4237 22.2457 22.3998 23.2672C21.3759 24.2887 19.9871 24.8626 18.5391 24.8626H18.3485L13.1708 24.8635C13.1708 23.0687 13.1468 21.276 13.1154 19.4829ZM7.97035 30.4812H18.5391C20.5245 30.5315 22.4853 30.0342 24.2057 29.0441C25.926 28.054 27.3391 26.6094 28.2893 24.8695L28.2934 24.8626C29.2447 23.1653 29.7347 21.2495 29.7147 19.305C29.6948 17.3606 29.1656 15.4551 28.1798 13.7776C27.1939 12.1002 25.7856 10.709 24.0945 9.74212C22.4033 8.77523 20.4883 8.26624 18.5391 8.26562L18.4436 8.26589C12.0548 8.31867 7.52851 13.6601 7.79433 19.8915C7.94999 23.5463 7.97035 26.7415 7.97035 30.4812Z" fill="#575756"/>
<path d="M5.88416 27.5H0.356445V30.5379H5.88416V27.5Z" fill="#575756"/>
<path d="M5.88416 14.9141H0.356445V17.9519H5.88416V14.9141Z" fill="#C4C5C5"/>
<path d="M5.88416 21.1484H0.356445V24.1863H5.88416V21.1484Z" fill="#9C9D9D"/>
<path fill-rule="evenodd" clip-rule="evenodd" d="M51.6281 23.7494H54.1795L59.5469 31.5619H63.8583L57.9629 23.2812C59.1375 22.8619 60.151 22.0861 60.8611 21.0628C61.5713 20.0395 61.9424 18.82 61.9225 17.5756C61.9225 13.9182 59.2828 11.782 55.5874 11.782H48.0205V31.5619H51.6281L51.6281 23.7494ZM51.6281 20.5016V15.03H55.2356C57.1125 15.03 58.227 15.8785 58.227 17.6634C58.2756 18.0425 58.2374 18.4277 58.1155 18.7901C57.9935 19.1524 57.7909 19.4825 57.5228 19.7556C57.2548 20.0287 56.9282 20.2377 56.5676 20.3669C56.207 20.4961 55.8218 20.5421 55.4408 20.5016H51.6281ZM79.6078 23.0931V19.9164H70.3984V15.03H79.9012V11.782H66.7912V23.0931H79.6078ZM92.6004 31.5619C93.3908 31.6074 94.1821 31.4885 94.924 31.2128C95.6659 30.9372 96.3424 30.5107 96.9104 29.9605C97.4784 29.4103 97.9257 28.7484 98.2238 28.0167C98.522 27.285 98.6645 26.4994 98.6423 25.7099C98.6272 24.6841 98.283 23.6902 97.6601 22.874C97.0373 22.0577 96.1686 21.4621 95.1815 21.1746C95.9613 20.755 96.6096 20.1284 97.0548 19.3642C97.4999 18.5999 97.7246 17.7277 97.7039 16.844C97.7039 13.6547 95.1815 11.782 91.7499 11.782H84.066V31.5619H92.6004ZM87.6732 28.3727V23.1059H92.4833C92.8168 23.0764 93.1527 23.1207 93.467 23.2357C93.7813 23.3507 94.0663 23.5335 94.3016 23.771C94.537 24.0086 94.7168 24.295 94.8284 24.6099C94.9399 24.9249 94.9804 25.2604 94.9469 25.5928C94.9469 27.3191 94.2137 28.3727 92.4833 28.3727H87.6732ZM87.6732 19.9457V14.9715H91.7793C92.091 14.9417 92.4055 14.9825 92.6991 15.091C92.9928 15.1994 93.2581 15.3726 93.4753 15.5977C93.6924 15.8228 93.8558 16.0939 93.9532 16.3908C94.0505 16.6877 94.0794 17.0027 94.0376 17.3124C94.0376 18.9802 93.1576 19.9457 91.8967 19.9457H87.6732ZM115.477 23.8079C115.477 26.9974 113.424 28.5481 110.608 28.5481C107.793 28.5481 105.623 26.9389 105.623 23.8079V11.782H102.015V24.2177C102.015 29.2504 106.15 31.8251 110.608 31.8251C115.066 31.8251 119.084 29.2504 119.084 24.2177V11.782H115.477L115.477 23.8079ZM129.555 19.2726C128.499 18.7167 127.179 17.8975 127.179 16.61C127.179 15.4397 128.03 14.7374 129.408 14.7374C130.433 14.7498 131.442 14.987 132.365 15.432C133.287 15.877 134.1 16.5189 134.746 17.3124L136.887 14.8544C135.964 13.7758 134.81 12.9166 133.511 12.3395C132.212 11.7624 130.801 11.4821 129.379 11.5188C125.801 11.5188 123.572 13.5962 123.572 16.6685C123.572 19.2726 125.273 21.0282 127.854 22.4035L130.23 23.6618C132.371 24.8029 133.221 25.3589 133.221 26.5583C133.221 27.7287 132.283 28.6067 130.552 28.6067C128.47 28.6067 126.651 27.6119 124.833 25.944L122.457 28.3727C123.476 29.4508 124.703 30.3124 126.063 30.9057C127.424 31.499 128.891 31.8117 130.376 31.8251C134.101 31.8251 136.799 29.5136 136.799 26.0316C136.799 23.0766 134.394 21.8183 132.107 20.6187L129.555 19.2726Z" fill="#EA0E15"/>
<path d="M80.2538 28.3672H66.792V31.5639H80.2538V28.3672Z" fill="#575756"/>
<path d="M119.691 37.564C119.694 37.4696 119.674 37.3759 119.632 37.2912C119.599 37.2264 119.549 37.1717 119.487 37.1329C119.432 37.0998 119.371 37.0779 119.308 37.0684C119.243 37.0593 119.178 37.0549 119.112 37.055H118.838V38.1242H119.127C119.215 38.1265 119.303 38.1125 119.386 38.0829C119.451 38.0581 119.509 38.0183 119.556 37.9668C119.601 37.9151 119.635 37.8547 119.657 37.7894C119.68 37.7165 119.691 37.6404 119.691 37.564ZM120.358 37.5177C120.362 37.678 120.333 37.8373 120.275 37.9868C120.224 38.1191 120.141 38.237 120.034 38.3305C119.921 38.4281 119.788 38.5007 119.645 38.5435C119.469 38.5955 119.285 38.6201 119.101 38.6165H118.838V39.6186C118.838 39.6346 118.833 39.6503 118.822 39.6626C118.808 39.6773 118.79 39.6881 118.77 39.6938C118.738 39.7035 118.706 39.7099 118.673 39.7132C118.622 39.7187 118.57 39.7212 118.518 39.7207C118.467 39.7211 118.415 39.7186 118.364 39.7132C118.331 39.7096 118.298 39.7032 118.266 39.6938C118.246 39.6885 118.229 39.6776 118.215 39.6626C118.205 39.6499 118.2 39.6345 118.2 39.6186V36.7917C118.198 36.7605 118.202 36.7292 118.212 36.6996C118.222 36.6701 118.239 36.643 118.26 36.62C118.281 36.6007 118.306 36.5857 118.333 36.5759C118.36 36.5661 118.388 36.5617 118.417 36.563H119.16C119.234 36.563 119.306 36.5652 119.373 36.5712C119.455 36.5791 119.536 36.5912 119.616 36.6075C119.715 36.6284 119.812 36.6632 119.902 36.7111C119.995 36.7587 120.079 36.8234 120.149 36.9017C120.218 36.9807 120.272 37.0725 120.305 37.1719C120.342 37.2834 120.36 37.4003 120.358 37.5177ZM115.861 38.1302C115.862 37.9792 115.849 37.8286 115.822 37.68C115.801 37.5568 115.756 37.4389 115.69 37.3328C115.628 37.2374 115.542 37.1601 115.44 37.1091C115.319 37.0529 115.186 37.0259 115.052 37.0303C114.915 37.0256 114.78 37.0561 114.659 37.1189C114.555 37.1758 114.467 37.2573 114.403 37.356C114.335 37.4613 114.289 37.5786 114.266 37.7016C114.239 37.8397 114.225 37.9802 114.226 38.1209C114.224 38.276 114.238 38.4308 114.265 38.5835C114.286 38.7078 114.331 38.827 114.396 38.9348C114.456 39.0305 114.542 39.1074 114.644 39.1569C114.767 39.2116 114.9 39.2377 115.035 39.2333C115.171 39.2382 115.307 39.208 115.428 39.1455C115.532 39.0887 115.62 39.0069 115.684 38.9075C115.751 38.8003 115.798 38.6812 115.821 38.5567C115.848 38.4162 115.861 38.2733 115.861 38.1302ZM116.534 38.0976C116.537 38.3341 116.504 38.5698 116.436 38.7965C116.379 38.9896 116.28 39.168 116.147 39.3193C116.016 39.4643 115.853 39.5768 115.671 39.6476C115.462 39.7264 115.239 39.7646 115.015 39.7602C114.798 39.7644 114.581 39.7319 114.374 39.6641C114.2 39.606 114.043 39.5055 113.918 39.3716C113.789 39.2281 113.696 39.0571 113.644 38.8718C113.579 38.6379 113.548 38.3959 113.553 38.1532C113.55 37.9212 113.583 37.69 113.65 37.4679C113.708 37.2765 113.807 37.0999 113.94 36.95C114.071 36.8055 114.233 36.6934 114.415 36.6225C114.625 36.5425 114.849 36.5037 115.074 36.5082C115.288 36.5045 115.502 36.5364 115.705 36.6025C115.88 36.6604 116.037 36.7607 116.162 36.8945C116.291 37.0364 116.386 37.2059 116.44 37.3901C116.506 37.6199 116.538 37.8584 116.534 38.0976ZM112.198 39.4387C112.198 39.4797 112.196 39.5207 112.192 39.5615C112.189 39.5894 112.183 39.6168 112.174 39.6434C112.168 39.6617 112.158 39.6782 112.143 39.6907C112.131 39.7005 112.116 39.7058 112.101 39.7057H110.658C110.609 39.7071 110.561 39.6902 110.523 39.6584C110.503 39.6382 110.488 39.614 110.479 39.5874C110.469 39.5608 110.466 39.5324 110.468 39.5043V36.6497C110.468 36.6338 110.474 36.6183 110.484 36.606C110.498 36.591 110.517 36.5802 110.537 36.5744C110.569 36.5649 110.602 36.5585 110.635 36.5555C110.738 36.5455 110.842 36.5455 110.946 36.5555C110.979 36.5587 111.011 36.565 111.043 36.5744C111.063 36.5802 111.081 36.5911 111.095 36.606C111.106 36.6183 111.111 36.6337 111.111 36.6497V39.1785H112.101C112.116 39.178 112.131 39.1826 112.143 39.1917C112.157 39.2033 112.168 39.2185 112.174 39.2358C112.183 39.2616 112.19 39.2886 112.192 39.3161C112.196 39.3568 112.198 39.3977 112.198 39.4387ZM108.774 39.4545C108.775 39.4941 108.773 39.5337 108.769 39.573C108.766 39.5991 108.76 39.6248 108.75 39.6494C108.744 39.6663 108.733 39.6811 108.719 39.6923C108.708 39.7011 108.694 39.7058 108.679 39.7057H107.099C107.05 39.7071 107.002 39.6902 106.965 39.6584C106.945 39.6382 106.93 39.614 106.92 39.5874C106.911 39.5607 106.907 39.5324 106.91 39.5043V36.7644C106.907 36.7362 106.911 36.7078 106.92 36.6812C106.93 36.6545 106.945 36.6302 106.965 36.61C107.002 36.5782 107.05 36.5615 107.099 36.563H108.672C108.686 36.5628 108.7 36.5671 108.711 36.5752C108.724 36.5868 108.734 36.6013 108.74 36.6175C108.749 36.6427 108.755 36.6688 108.758 36.6953C108.763 36.7355 108.765 36.7759 108.764 36.8164C108.765 36.8552 108.763 36.8939 108.758 36.9324C108.756 36.9586 108.75 36.9843 108.74 37.0088C108.734 37.0252 108.724 37.0399 108.711 37.0519C108.7 37.0606 108.686 37.0652 108.672 37.0651H107.548V37.831H108.495C108.51 37.8307 108.524 37.8354 108.535 37.8442C108.549 37.855 108.559 37.8693 108.566 37.8857C108.576 37.9098 108.582 37.9352 108.584 37.9611C108.592 38.0379 108.592 38.1154 108.584 38.1922C108.581 38.2176 108.575 38.2424 108.566 38.266C108.56 38.2821 108.549 38.296 108.535 38.3058C108.523 38.3141 108.509 38.3185 108.495 38.3184H107.548V39.2033H108.679C108.694 39.203 108.708 39.2077 108.719 39.2168C108.733 39.2279 108.744 39.2428 108.75 39.2598C108.76 39.2842 108.766 39.3098 108.769 39.3359C108.773 39.3753 108.775 39.4149 108.774 39.4545ZM104.404 39.5945C104.398 39.6184 104.388 39.6409 104.373 39.6608C104.356 39.68 104.334 39.6937 104.31 39.6998C104.271 39.7104 104.231 39.7162 104.19 39.7171C104.14 39.7196 104.075 39.7207 103.993 39.7207C103.928 39.7207 103.873 39.7207 103.826 39.7196C103.78 39.7189 103.741 39.7164 103.708 39.7132C103.682 39.7107 103.655 39.706 103.629 39.6989C103.611 39.6934 103.594 39.685 103.578 39.6741C103.565 39.6651 103.554 39.6532 103.546 39.6393C103.538 39.6226 103.531 39.6051 103.526 39.587L102.589 36.8007C102.573 36.7558 102.562 36.7094 102.555 36.6623C102.551 36.6484 102.552 36.634 102.556 36.6205C102.56 36.607 102.568 36.5948 102.579 36.5852C102.609 36.5651 102.645 36.5542 102.681 36.5537C102.731 36.5496 102.799 36.548 102.887 36.548C102.961 36.548 103.02 36.5496 103.062 36.5529C103.095 36.5546 103.128 36.5601 103.159 36.5694C103.179 36.5754 103.196 36.5884 103.207 36.606C103.217 36.6256 103.226 36.6461 103.232 36.6673L103.998 39.0914H104L104.753 36.6788C104.758 36.6558 104.766 36.6336 104.777 36.6128C104.788 36.5937 104.806 36.5792 104.827 36.572C104.86 36.5609 104.894 36.5544 104.929 36.5529C104.972 36.5496 105.033 36.548 105.109 36.548C105.167 36.5472 105.226 36.5497 105.283 36.5555C105.315 36.5562 105.346 36.5685 105.369 36.5902C105.377 36.6017 105.382 36.6147 105.385 36.6285C105.387 36.6422 105.387 36.6563 105.383 36.6698C105.374 36.716 105.362 36.7614 105.346 36.8056L104.404 39.5945ZM101.142 39.4545C101.143 39.4941 101.141 39.5337 101.136 39.573C101.134 39.5991 101.127 39.6248 101.118 39.6494C101.112 39.6662 101.101 39.6811 101.087 39.6923C101.076 39.7011 101.062 39.7058 101.047 39.7057H99.4674C99.4181 39.7072 99.3701 39.6903 99.3327 39.6584C99.3128 39.6382 99.2976 39.614 99.2881 39.5874C99.2786 39.5608 99.2751 39.5324 99.2778 39.5043V36.7644C99.2751 36.7362 99.2786 36.7078 99.2881 36.6811C99.2976 36.6545 99.3128 36.6302 99.3327 36.61C99.3701 36.5781 99.4182 36.5614 99.4674 36.563H101.04C101.054 36.5628 101.068 36.5671 101.079 36.5752C101.092 36.5868 101.102 36.6013 101.108 36.6175C101.117 36.6427 101.123 36.6688 101.126 36.6953C101.131 36.7355 101.133 36.7759 101.132 36.8164C101.133 36.8552 101.131 36.8939 101.126 36.9324C101.124 36.9586 101.117 36.9843 101.108 37.0088C101.102 37.0252 101.092 37.0399 101.079 37.0519C101.068 37.0606 101.054 37.0653 101.04 37.0651H99.9158V37.831H100.863C100.877 37.8307 100.891 37.8354 100.903 37.8442C100.917 37.855 100.927 37.8693 100.933 37.8857C100.943 37.9098 100.949 37.9352 100.952 37.9611C100.959 38.0379 100.959 38.1154 100.952 38.1922C100.949 38.2175 100.943 38.2424 100.933 38.266C100.928 38.2821 100.917 38.2961 100.903 38.3058C100.891 38.3141 100.877 38.3185 100.863 38.3184H99.9158V39.2033H101.047C101.062 39.203 101.076 39.2077 101.087 39.2168C101.101 39.228 101.112 39.2429 101.118 39.2598C101.127 39.2842 101.134 39.3098 101.136 39.3359C101.141 39.3752 101.143 39.4148 101.142 39.4545ZM96.9633 38.1101C96.9645 37.97 96.9469 37.8303 96.9109 37.6949C96.8794 37.5737 96.8223 37.4606 96.7433 37.3633C96.6635 37.2676 96.5618 37.1923 96.4467 37.1439C96.295 37.086 96.1331 37.0592 95.9707 37.0651H95.6475V39.1982H95.9805C96.131 39.2024 96.281 39.1795 96.4234 39.1305C96.5391 39.0881 96.6424 39.0178 96.7241 38.9258C96.8081 38.8266 96.8694 38.7103 96.9037 38.585C96.9459 38.4303 96.9659 38.2704 96.9633 38.1101ZM97.6264 38.0879C97.6322 38.3393 97.594 38.5898 97.5133 38.828C97.4468 39.0186 97.3355 39.1906 97.1885 39.3293C97.0409 39.4624 96.8647 39.5599 96.6733 39.6143C96.4384 39.6794 96.1952 39.7102 95.9514 39.7057H95.1998C95.1503 39.7073 95.102 39.6904 95.0643 39.6584C95.0445 39.6382 95.0293 39.614 95.0198 39.5874C95.0103 39.5607 95.0068 39.5324 95.0095 39.5043V36.7644C95.0068 36.7362 95.0103 36.7078 95.0198 36.6812C95.0293 36.6545 95.0445 36.6302 95.0643 36.61C95.102 36.578 95.1503 36.5612 95.1998 36.563H96.0073C96.2491 36.5574 96.4903 36.5907 96.7215 36.6616C96.9061 36.7203 97.075 36.8196 97.2158 36.9522C97.3527 37.0861 97.4573 37.2494 97.5215 37.4296C97.5951 37.6412 97.6306 37.864 97.6264 38.0879ZM90.4169 38.1302C90.4179 37.9792 90.4049 37.8285 90.3779 37.68C90.3569 37.5568 90.312 37.4389 90.2458 37.3328C90.1842 37.2373 90.0982 37.1601 89.9966 37.1091C89.8749 37.0529 89.7418 37.0259 89.6078 37.0303C89.4714 37.0256 89.336 37.0561 89.2148 37.1189C89.1114 37.1758 89.0236 37.2573 88.959 37.356C88.8914 37.4613 88.8449 37.5786 88.8218 37.7016C88.7948 37.8397 88.7814 37.9802 88.782 38.1209C88.7807 38.276 88.7938 38.4308 88.8211 38.5835C88.8423 38.7078 88.8868 38.8269 88.9522 38.9348C89.0123 39.0304 89.0981 39.1074 89.1997 39.1569C89.3227 39.2116 89.4565 39.2377 89.591 39.2333C89.7274 39.2382 89.8629 39.208 89.9842 39.1455C90.0881 39.0888 90.176 39.007 90.2398 38.9075C90.3074 38.8004 90.354 38.6813 90.377 38.5567C90.4042 38.4162 90.4176 38.2733 90.4169 38.1302ZM91.0897 38.0976C91.0932 38.3341 91.0605 38.5698 90.9927 38.7965C90.935 38.9896 90.8361 39.168 90.7027 39.3193C90.5723 39.4643 90.4095 39.5768 90.2276 39.6476C90.0179 39.7264 89.7951 39.7646 89.5712 39.7602C89.3538 39.7643 89.1373 39.7319 88.9307 39.6641C88.7564 39.606 88.5994 39.5055 88.4738 39.3716C88.3454 39.2281 88.2518 39.0571 88.2004 38.8718C88.1354 38.6379 88.1047 38.3959 88.1091 38.1532C88.106 37.9212 88.1387 37.69 88.2062 37.4679C88.2644 37.2765 88.3633 37.0998 88.4961 36.95C88.6269 36.8055 88.7896 36.6933 88.9714 36.6225C89.1815 36.5425 89.4052 36.5037 89.6301 36.5082C89.8444 36.5045 90.0578 36.5364 90.2616 36.6025C90.4359 36.6604 90.593 36.7608 90.7186 36.8945C90.8478 37.0364 90.9426 37.2059 90.9959 37.3901C91.0625 37.6199 91.0941 37.8584 91.0897 38.0976ZM86.7575 36.8247C86.758 36.8651 86.7561 36.9056 86.7517 36.9458C86.7491 36.973 86.743 36.9997 86.7333 37.0253C86.7275 37.0427 86.7169 37.0582 86.7028 37.07C86.6916 37.0797 86.6774 37.0849 86.6626 37.0849H85.8752V39.6186C85.8753 39.6346 85.8697 39.6502 85.8594 39.6626C85.8449 39.6774 85.8268 39.6881 85.807 39.6939C85.7747 39.7032 85.7418 39.7096 85.7084 39.7132C85.6056 39.7232 85.502 39.7232 85.3992 39.7132C85.3657 39.7096 85.3327 39.7032 85.3003 39.6939C85.2805 39.6881 85.2625 39.6773 85.248 39.6626C85.2377 39.6502 85.2321 39.6346 85.2322 39.6186V37.0849H84.4447C84.4295 37.0852 84.4146 37.08 84.4031 37.07C84.39 37.0576 84.3801 37.0423 84.374 37.0253C84.365 36.9995 84.3588 36.9729 84.3556 36.9458C84.3514 36.9055 84.3495 36.8651 84.3499 36.8247C84.3495 36.7835 84.3514 36.7423 84.3556 36.7013C84.3588 36.6736 84.3649 36.6463 84.374 36.62C84.38 36.6033 84.39 36.5882 84.4031 36.5762C84.415 36.5671 84.4297 36.5624 84.4447 36.563H86.6627C86.6772 36.5628 86.6913 36.5675 86.7028 36.5762C86.717 36.5876 86.7276 36.6028 86.7333 36.62C86.7431 36.6462 86.7492 36.6735 86.7517 36.7013C86.7561 36.7423 86.7581 36.7835 86.7575 36.8247ZM79.3977 37.1604H79.3952L78.9565 38.4972H79.8406L79.3977 37.1604ZM80.8432 39.4677C80.8591 39.5128 80.8713 39.559 80.8798 39.606C80.883 39.6195 80.8829 39.6335 80.8796 39.647C80.8763 39.6604 80.8699 39.6729 80.8608 39.6833C80.833 39.7034 80.7996 39.7144 80.7653 39.7147C80.7203 39.7189 80.6572 39.7207 80.5781 39.7207C80.4952 39.7207 80.4301 39.7196 80.3846 39.7172C80.3487 39.7162 80.313 39.7112 80.2782 39.7022C80.2585 39.6975 80.2408 39.6869 80.2275 39.6716C80.2165 39.6564 80.2083 39.6393 80.2035 39.6211L79.9965 38.9896H78.8086L78.6102 39.6038C78.6049 39.6241 78.5961 39.6434 78.5843 39.6608C78.5717 39.678 78.554 39.6908 78.5338 39.6974C78.5015 39.7081 78.4679 39.7141 78.434 39.7154C78.3908 39.7189 78.3343 39.7207 78.2646 39.7207C78.2061 39.7214 78.1476 39.7189 78.0893 39.7132C78.0569 39.7125 78.0259 39.7001 78.002 39.6781C77.9934 39.667 77.9873 39.6542 77.9843 39.6404C77.9813 39.6267 77.9814 39.6125 77.9845 39.5988C77.993 39.5525 78.0052 39.507 78.0211 39.4627L78.9914 36.6737C78.9988 36.6498 79.0104 36.6274 79.0256 36.6075C79.0414 36.5884 79.0629 36.5748 79.087 36.5687C79.1257 36.558 79.1657 36.5521 79.2059 36.5512C79.2555 36.5487 79.3222 36.548 79.4052 36.548C79.5007 36.548 79.5773 36.5487 79.6337 36.5512C79.6785 36.5519 79.7231 36.5578 79.7666 36.5687C79.7929 36.5746 79.8167 36.5886 79.8348 36.6085C79.8503 36.6307 79.862 36.6553 79.8694 36.6813L80.8432 39.4677ZM76.5699 39.4545C76.5704 39.4941 76.5684 39.5337 76.5638 39.573C76.5612 39.5992 76.5551 39.6248 76.5458 39.6494C76.5395 39.6662 76.5288 39.681 76.5149 39.6924C76.5035 39.7011 76.4894 39.7058 76.475 39.7057H74.8949C74.8457 39.7071 74.7978 39.6902 74.7604 39.6584C74.7406 39.6382 74.7253 39.614 74.7159 39.5874C74.7064 39.5608 74.7029 39.5324 74.7055 39.5043V36.7644C74.7029 36.7362 74.7064 36.7078 74.7159 36.6811C74.7254 36.6545 74.7406 36.6302 74.7604 36.61C74.7978 36.5782 74.8457 36.5614 74.8949 36.563H76.4675C76.4815 36.5628 76.4952 36.5671 76.5066 36.5752C76.5196 36.5867 76.5295 36.6012 76.5354 36.6175C76.5444 36.6427 76.5506 36.6688 76.554 36.6953C76.5584 36.7355 76.5603 36.7759 76.5598 36.8164C76.5603 36.8552 76.5583 36.8939 76.554 36.9324C76.5514 36.9586 76.5451 36.9843 76.5354 37.0088C76.5294 37.0252 76.5195 37.04 76.5066 37.0519C76.4955 37.0606 76.4817 37.0653 76.4675 37.0651H75.3435V37.831H76.2905C76.305 37.8307 76.3191 37.8354 76.3307 37.8442C76.3444 37.855 76.3549 37.8694 76.3612 37.8857C76.3708 37.9098 76.377 37.9352 76.3795 37.9611C76.3871 38.0379 76.3871 38.1154 76.3795 38.1922C76.3768 38.2176 76.3706 38.2424 76.3612 38.266C76.3553 38.2821 76.3447 38.296 76.3307 38.3058C76.3189 38.3141 76.3049 38.3185 76.2905 38.3184H75.3435V39.2033H76.475C76.4895 39.203 76.5036 39.2077 76.5149 39.2168C76.5289 39.2281 76.5396 39.2429 76.5458 39.2598C76.5552 39.2842 76.5613 39.3098 76.5638 39.3359C76.5684 39.3752 76.5704 39.4149 76.5699 39.4545ZM72.391 38.1101C72.3922 37.97 72.3746 37.8304 72.3387 37.6949C72.3071 37.5737 72.2499 37.4607 72.1711 37.3634C72.0912 37.2676 71.9895 37.1924 71.8744 37.1439C71.7227 37.086 71.5608 37.0592 71.3985 37.0651H71.0752V39.1983H71.4082C71.5587 39.2024 71.7088 39.1795 71.8511 39.1305C71.9668 39.0882 72.0701 39.0178 72.1518 38.9258C72.2359 38.8266 72.2972 38.7103 72.3313 38.585C72.3736 38.4303 72.3937 38.2705 72.391 38.1101ZM73.0538 38.0879C73.0598 38.3393 73.0216 38.5898 72.941 38.828C72.8745 39.0186 72.7632 39.1905 72.6163 39.3293C72.4687 39.4624 72.2924 39.5599 72.1011 39.6143C71.8662 39.6794 71.623 39.7102 71.3791 39.7057H70.6275C70.578 39.7073 70.5298 39.6904 70.4921 39.6584C70.4722 39.6383 70.457 39.614 70.4475 39.5874C70.438 39.5608 70.4344 39.5324 70.4371 39.5043V36.7644C70.4344 36.7362 70.438 36.7078 70.4475 36.6811C70.457 36.6545 70.4722 36.6302 70.4921 36.61C70.5298 36.578 70.5781 36.5613 70.6275 36.563H71.4348C71.6767 36.5574 71.918 36.5907 72.1493 36.6616C72.3338 36.7202 72.5028 36.8196 72.6436 36.9522C72.7805 37.0861 72.885 37.2494 72.9493 37.4296C73.0226 37.6412 73.058 37.8641 73.0538 38.0879ZM68.6243 39.6186C68.6244 39.6346 68.6189 39.6502 68.6087 39.6626C68.5942 39.6773 68.5761 39.688 68.5563 39.6939C68.5245 39.703 68.4919 39.7095 68.4591 39.7132C68.3557 39.7232 68.2516 39.7232 68.1483 39.7132C68.1149 39.7096 68.0818 39.7032 68.0495 39.6939C68.0297 39.688 68.0116 39.6773 67.997 39.6626C67.9868 39.6502 67.9813 39.6346 67.9814 39.6186V36.6497C67.9813 36.6338 67.9869 36.6183 67.997 36.606C68.012 36.5908 68.0307 36.5799 68.0513 36.5744C68.0833 36.565 68.1161 36.5587 68.1493 36.5555C68.2002 36.5499 68.2515 36.5474 68.3028 36.548C68.355 36.5474 68.4072 36.5499 68.4591 36.5555C68.492 36.5587 68.5245 36.565 68.5563 36.5744C68.5762 36.5803 68.5942 36.5911 68.6087 36.606C68.6188 36.6183 68.6243 36.6338 68.6243 36.6497V39.6186ZM63.9139 39.6186C63.9141 39.6343 63.9094 39.6497 63.9005 39.6626C63.8876 39.6775 63.8706 39.6884 63.8516 39.6939C63.821 39.703 63.7896 39.7095 63.7578 39.7132C63.7084 39.7187 63.6587 39.7212 63.609 39.7207C63.5599 39.7212 63.5107 39.7187 63.4618 39.7132C63.4303 39.7096 63.3992 39.7031 63.3688 39.6939C63.3502 39.6882 63.3335 39.6773 63.3207 39.6626C63.311 39.65 63.3058 39.6345 63.3059 39.6186V37.0601H63.3006L62.8459 38.3381L62.3911 39.6161C62.3853 39.636 62.3744 39.654 62.3594 39.6683C62.3423 39.6838 62.3219 39.6951 62.2998 39.7014C62.2686 39.7101 62.2366 39.7154 62.2042 39.7172C62.1651 39.7196 62.1177 39.7207 62.063 39.7207C62.0159 39.7212 61.9687 39.7192 61.9218 39.7147C61.889 39.7119 61.8566 39.7053 61.8253 39.6949C61.8038 39.6875 61.7836 39.6766 61.7656 39.6626C61.7518 39.6501 61.7417 39.634 61.7365 39.6161L60.8583 37.0601H60.8535V39.6186C60.8536 39.6343 60.849 39.6496 60.8402 39.6626C60.827 39.6777 60.8096 39.6885 60.7903 39.6939C60.7593 39.7028 60.7277 39.7092 60.6957 39.7132C60.6469 39.7187 60.5977 39.7212 60.5485 39.7207C60.4994 39.7212 60.4504 39.7187 60.4016 39.7132C60.3697 39.7095 60.3382 39.7031 60.3075 39.6939C60.2886 39.6883 60.2716 39.6775 60.2587 39.6626C60.2498 39.6496 60.2452 39.6343 60.2453 39.6186V36.8181C60.2429 36.7837 60.2475 36.7492 60.2587 36.7166C60.27 36.684 60.2877 36.6539 60.3108 36.6283C60.3342 36.606 60.3619 36.5887 60.3922 36.5775C60.4226 36.5663 60.4549 36.5613 60.4872 36.563H60.906C60.9706 36.5619 61.0352 36.5679 61.0986 36.581C61.1487 36.5917 61.1962 36.6123 61.2383 36.6415C61.2782 36.6715 61.3113 36.7096 61.3353 36.7534C61.3644 36.8078 61.3873 36.8654 61.4035 36.9249L62.0821 38.7972H62.0921L62.7948 36.9293C62.8124 36.8698 62.8355 36.8121 62.8638 36.7569C62.8864 36.7142 62.9162 36.6757 62.9521 36.6433C62.9861 36.6139 63.0264 36.5926 63.0699 36.581C63.1217 36.5681 63.175 36.5621 63.2284 36.563H63.6606C63.699 36.5621 63.7372 36.568 63.7736 36.5802C63.8036 36.5897 63.8305 36.6069 63.8517 36.63C63.8729 36.6527 63.8887 36.6799 63.898 36.7096C63.9092 36.7446 63.9146 36.7813 63.9139 36.8181L63.9139 39.6186ZM57.9058 38.1302C57.9069 37.9793 57.8939 37.8286 57.867 37.68C57.8459 37.5569 57.801 37.4389 57.7348 37.3328C57.6733 37.2373 57.5872 37.1601 57.4855 37.1092C57.3639 37.0529 57.2307 37.0259 57.0967 37.0303C56.9603 37.0256 56.8249 37.0561 56.7037 37.1189C56.6003 37.1758 56.5125 37.2573 56.448 37.356C56.3805 37.4614 56.3339 37.5787 56.3108 37.7016C56.2837 37.8397 56.2703 37.9802 56.2709 38.1209C56.2696 38.276 56.2827 38.4308 56.31 38.5835C56.3312 38.7078 56.3757 38.827 56.4412 38.9348C56.5013 39.0305 56.587 39.1074 56.6887 39.157C56.8116 39.2116 56.9454 39.2377 57.0799 39.2333C57.2164 39.2383 57.3518 39.208 57.4732 39.1455C57.577 39.0888 57.665 39.007 57.7289 38.9075C57.7965 38.8004 57.843 38.6813 57.8659 38.5568C57.8932 38.4162 57.9065 38.2733 57.9058 38.1302ZM58.5786 38.0976C58.5821 38.3341 58.5494 38.5698 58.4816 38.7965C58.4239 38.9896 58.325 39.168 58.1917 39.3194C58.0612 39.4643 57.8984 39.5768 57.7165 39.6476C57.5068 39.7264 57.2841 39.7646 57.0601 39.7602C56.8427 39.7644 56.6262 39.7319 56.4196 39.6641C56.2453 39.606 56.0883 39.5055 55.9627 39.3716C55.8344 39.2281 55.7409 39.0571 55.6893 38.8718C55.6244 38.6379 55.5937 38.3959 55.5981 38.1532C55.595 37.9212 55.6277 37.69 55.6952 37.4679C55.7534 37.2765 55.8523 37.0998 55.9853 36.95C56.1159 36.8055 56.2786 36.6933 56.4603 36.6225C56.6705 36.5425 56.8942 36.5037 57.1191 36.5082C57.3334 36.5045 57.5468 36.5364 57.7506 36.6025C57.9249 36.6604 58.0819 36.7608 58.2075 36.8945C58.3367 37.0364 58.4316 37.2059 58.4848 37.3901C58.5514 37.6199 58.583 37.8584 58.5786 38.0976ZM53.325 37.4894C53.3283 37.397 53.3037 37.3058 53.2545 37.2274C53.1986 37.1503 53.1161 37.0966 53.0228 37.0766C52.9864 37.068 52.9494 37.0616 52.9121 37.0576C52.855 37.0518 52.7976 37.0493 52.7401 37.0501H52.4527V37.9402H52.7792C52.8599 37.9419 52.9403 37.9307 53.0175 37.9072C53.0804 37.8889 53.1388 37.8575 53.1887 37.8152C53.2337 37.7768 53.2688 37.7281 53.2909 37.6733C53.3142 37.6149 53.3258 37.5524 53.325 37.4894ZM54.1526 39.6236C54.153 39.6391 54.1495 39.6545 54.1425 39.6684C54.1315 39.6837 54.1153 39.6946 54.0969 39.6989C54.0618 39.7083 54.0258 39.7139 53.9896 39.7154C53.9421 39.7189 53.8782 39.7207 53.7977 39.7207C53.7297 39.7207 53.6755 39.7189 53.6349 39.7154C53.6021 39.714 53.5695 39.7079 53.5384 39.6974C53.5189 39.691 53.5017 39.6792 53.4887 39.6634C53.4785 39.6479 53.4705 39.6311 53.4646 39.6135L53.1805 38.91C53.1464 38.8305 53.113 38.7592 53.0806 38.6979C53.052 38.6413 53.0155 38.5891 52.9721 38.5427C52.9328 38.5023 52.8855 38.4704 52.8332 38.4492C52.7756 38.4273 52.7144 38.4166 52.6528 38.4177H52.4527V39.6186C52.4529 39.6345 52.4473 39.6499 52.4369 39.6619C52.4227 39.6772 52.4045 39.6882 52.3845 39.6939C52.3527 39.7031 52.3202 39.7096 52.2874 39.7132C52.2361 39.7187 52.1845 39.7212 52.1329 39.7207C52.0813 39.7212 52.0298 39.7187 51.9784 39.7132C51.9452 39.7096 51.9123 39.7032 51.8802 39.6939C51.8607 39.6884 51.8431 39.6776 51.8295 39.6626C51.8199 39.6499 51.8147 39.6345 51.8147 39.6186V36.7644C51.812 36.7362 51.8155 36.7078 51.825 36.6811C51.8345 36.6545 51.8498 36.6302 51.8696 36.61C51.907 36.5782 51.9549 36.5614 52.0041 36.563H52.8198C52.9021 36.563 52.9711 36.5645 53.0243 36.5677C53.0774 36.5712 53.1263 36.5752 53.1704 36.5795C53.2879 36.5951 53.4028 36.6263 53.512 36.6722C53.6083 36.7121 53.696 36.7701 53.7703 36.843C53.8412 36.9139 53.8964 36.9989 53.9323 37.0924C53.9713 37.1985 53.9902 37.3109 53.988 37.4239C53.9892 37.5209 53.9757 37.6176 53.9479 37.7106C53.9225 37.7944 53.8823 37.873 53.8293 37.9428C53.7761 38.0123 53.7112 38.072 53.6374 38.1191C53.5564 38.1714 53.4687 38.2124 53.3766 38.241C53.4237 38.2635 53.4683 38.2911 53.5093 38.3233C53.553 38.3579 53.5924 38.3976 53.6266 38.4417C53.6657 38.4914 53.7004 38.5444 53.7305 38.6C53.7658 38.6651 53.7974 38.7321 53.8251 38.8007L54.0919 39.4212C54.1102 39.4654 54.1262 39.5105 54.14 39.5563C54.1472 39.578 54.1514 39.6007 54.1526 39.6236ZM50.1699 36.8247C50.1705 36.8656 50.1685 36.9066 50.164 36.9473C50.1614 36.9746 50.1547 37.0014 50.144 37.0268C50.1372 37.0431 50.127 37.0578 50.1141 37.07C50.1035 37.0796 50.0897 37.0849 50.0753 37.0849H49.0433V37.9303H50.0111C50.0252 37.9299 50.039 37.9343 50.0502 37.9428C50.0639 37.9534 50.0745 37.9674 50.081 37.9833C50.091 38.0082 50.0975 38.0344 50.1002 38.0612C50.1088 38.1419 50.1088 38.2233 50.1002 38.3041C50.0973 38.3315 50.0909 38.3585 50.081 38.3844C50.0745 38.4015 50.0639 38.4169 50.0502 38.4291C50.0393 38.4382 50.0253 38.443 50.0111 38.4425H49.0433V39.6135C49.0436 39.6303 49.0384 39.6466 49.0285 39.6601C49.0145 39.6756 48.9963 39.6868 48.9761 39.6924C48.9442 39.7027 48.9114 39.7097 48.878 39.7132C48.7747 39.7232 48.6706 39.7232 48.5673 39.7132C48.5337 39.71 48.5005 39.703 48.4685 39.6924C48.4485 39.6863 48.4305 39.6752 48.4161 39.6601C48.4055 39.6469 48.3999 39.6304 48.4003 39.6135V36.7644C48.3976 36.7362 48.4011 36.7078 48.4106 36.6811C48.4201 36.6545 48.4353 36.6302 48.4552 36.61C48.4929 36.578 48.5412 36.5613 48.5907 36.563H50.0753C50.0894 36.5627 50.1032 36.5674 50.1141 36.5762C50.1274 36.5883 50.1376 36.6033 50.144 36.62C50.1547 36.646 50.1614 36.6734 50.164 36.7013C50.1685 36.7423 50.1704 36.7835 50.1699 36.8247Z" fill="#575756"/>
<path d="M136.359 36.9453C136.363 36.9051 136.365 36.8647 136.365 36.8242C136.365 36.783 136.363 36.7418 136.359 36.7009C136.356 36.6731 136.35 36.6457 136.341 36.6196C136.335 36.6024 136.324 36.5872 136.31 36.5758C136.298 36.567 136.284 36.5624 136.27 36.5625H134.052C134.037 36.562 134.022 36.5667 134.01 36.5758C133.997 36.5878 133.987 36.6028 133.981 36.6196C133.972 36.6459 133.966 36.6732 133.963 36.7009C133.959 36.7418 133.957 36.783 133.957 36.8242C133.957 36.8647 133.959 36.9051 133.963 36.9453C133.966 36.9724 133.972 36.9991 133.981 37.0249C133.987 37.0419 133.997 37.0572 134.01 37.0696C134.022 37.0795 134.037 37.0848 134.052 37.0844H134.839V39.6181C134.839 39.6342 134.845 39.6498 134.855 39.6622C134.87 39.6769 134.888 39.6876 134.908 39.6934C134.94 39.7027 134.973 39.7092 135.006 39.7127C135.109 39.7227 135.213 39.7227 135.316 39.7127C135.349 39.7092 135.382 39.7027 135.414 39.6934C135.434 39.6877 135.452 39.6769 135.467 39.6622C135.477 39.6498 135.482 39.6342 135.482 39.6181V37.0844H136.27C136.285 37.0845 136.299 37.0792 136.31 37.0696C136.324 37.0578 136.335 37.0423 136.34 37.0249C136.35 36.9993 136.356 36.9725 136.359 36.9453Z" fill="#575756"/>
<path d="M129.208 39.6273C129.212 39.588 129.214 39.5484 129.214 39.5088C129.214 39.4692 129.212 39.4296 129.208 39.3902C129.205 39.3641 129.199 39.3386 129.19 39.3141C129.184 39.2971 129.173 39.2823 129.159 39.2711C129.147 39.262 129.133 39.2573 129.119 39.2576H127.987V38.3727H128.934C128.949 38.3728 128.963 38.3684 128.974 38.3601C128.989 38.3503 128.999 38.3364 129.005 38.3203C129.015 38.2967 129.021 38.2719 129.023 38.2465C129.031 38.1697 129.031 38.0922 129.023 38.0154C129.021 37.9895 129.015 37.9641 129.005 37.94C128.999 37.9236 128.988 37.9093 128.974 37.8985C128.963 37.8897 128.949 37.885 128.934 37.8853H127.987V37.1194H129.111C129.126 37.1195 129.139 37.1149 129.151 37.1062C129.163 37.0942 129.173 37.0795 129.179 37.0631C129.189 37.0386 129.195 37.0129 129.198 36.9868C129.202 36.9482 129.204 36.9095 129.204 36.8707C129.204 36.8302 129.202 36.7898 129.198 36.7496C129.195 36.7231 129.188 36.697 129.179 36.6718C129.173 36.6556 129.164 36.6411 129.151 36.6295C129.139 36.6214 129.125 36.6171 129.111 36.6173H127.539C127.49 36.6158 127.442 36.6325 127.404 36.6643C127.384 36.6845 127.369 36.7088 127.36 36.7355C127.35 36.7621 127.347 36.7905 127.35 36.8187V39.5586C127.347 39.5867 127.35 39.615 127.36 39.6417C127.369 39.6683 127.384 39.6925 127.404 39.7127C127.442 39.7445 127.49 39.7614 127.539 39.76H129.119C129.133 39.7601 129.147 39.7554 129.159 39.7466C129.173 39.7355 129.183 39.7206 129.19 39.7037C129.199 39.6791 129.205 39.6534 129.208 39.6273Z" fill="#575756"/>
<path fill-rule="evenodd" clip-rule="evenodd" d="M130.526 36.7436C130.526 36.6048 130.639 36.4922 130.778 36.4922C130.802 36.4922 130.826 36.4957 130.849 36.5024C130.869 36.4958 130.891 36.4922 130.915 36.4922C130.986 36.4922 131.053 36.5283 131.092 36.5881L132.664 38.9937V36.7619C132.664 36.6231 132.777 36.5105 132.915 36.5105C133.054 36.5105 133.167 36.6231 133.167 36.7619V39.5118C133.167 39.6507 133.054 39.7632 132.915 39.7632C132.887 39.7632 132.859 39.7584 132.833 39.7494C132.809 39.7583 132.783 39.7632 132.755 39.7632C132.679 39.7632 132.608 39.7247 132.567 39.661L131.029 37.273V39.4719C131.029 39.6108 130.917 39.7234 130.778 39.7234C130.639 39.7234 130.526 39.6108 130.526 39.4719V36.7436Z" fill="#575756"/>
<path d="M125.592 39.7015C125.601 39.6886 125.606 39.6732 125.606 39.6575L125.606 36.857C125.606 36.8202 125.601 36.7835 125.59 36.7485C125.58 36.7188 125.565 36.6916 125.543 36.6689C125.522 36.6458 125.495 36.6286 125.465 36.6191C125.429 36.6069 125.391 36.601 125.352 36.6019H124.92C124.867 36.601 124.814 36.607 124.762 36.6199C124.718 36.6315 124.678 36.6528 124.644 36.6822C124.608 36.7146 124.578 36.7531 124.556 36.7958C124.527 36.851 124.504 36.9087 124.487 36.9682L123.784 38.8361H123.774L123.095 36.9638C123.079 36.9043 123.056 36.8467 123.027 36.7922C123.003 36.7485 122.97 36.7104 122.93 36.6804C122.888 36.6512 122.841 36.6306 122.79 36.6199C122.727 36.6068 122.662 36.6007 122.598 36.6019H122.179C122.147 36.6002 122.114 36.6052 122.084 36.6164C122.054 36.6276 122.026 36.6449 122.003 36.6672C121.98 36.6928 121.962 36.7229 121.951 36.7555C121.939 36.7881 121.935 36.8226 121.937 36.857V39.6575C121.937 39.6732 121.942 39.6885 121.95 39.7015C121.963 39.7164 121.98 39.7272 121.999 39.7327C122.03 39.742 122.062 39.7484 122.093 39.7521C122.142 39.7576 122.191 39.7601 122.24 39.7596C122.29 39.7601 122.339 39.7576 122.388 39.7521C122.42 39.7481 122.451 39.7417 122.482 39.7327C122.501 39.7274 122.519 39.7166 122.532 39.7015C122.541 39.6885 122.545 39.6731 122.545 39.6575V37.099H122.55L123.428 39.655C123.434 39.6729 123.444 39.689 123.457 39.7015C123.475 39.7155 123.496 39.7264 123.517 39.7338C123.548 39.7442 123.581 39.7508 123.614 39.7536C123.661 39.7581 123.708 39.7601 123.755 39.7596C123.81 39.7596 123.857 39.7585 123.896 39.756C123.928 39.7543 123.96 39.749 123.992 39.7403C124.014 39.734 124.034 39.7227 124.051 39.7072C124.066 39.6929 124.077 39.6749 124.083 39.655L124.538 38.377L124.992 37.099H124.998V39.6575C124.998 39.6734 125.003 39.6889 125.013 39.7015C125.025 39.7162 125.042 39.7271 125.061 39.7327C125.091 39.742 125.122 39.7484 125.154 39.7521C125.203 39.7576 125.252 39.7601 125.301 39.7596C125.351 39.7601 125.4 39.7576 125.45 39.7521C125.481 39.7484 125.513 39.7419 125.543 39.7327C125.562 39.7273 125.579 39.7164 125.592 39.7015Z" fill="#575756"/>
</g>
<defs>
<clipPath id="clip0_1468_3054">
<rect width="136.765" height="50" fill="white" transform="translate(0.123047)"/>
</clipPath>
</defs>
</svg>
